<svg width="90" height="19" viewBox="0 0 90 19" fill="none" xmlns="http://www.w3.org/2000/svg">
<path d="M9.24494 0L11.8641 5.63991L18.0374 6.38809L13.4829 10.6219L14.679 16.7243L9.24494 13.701L3.8109 16.7243L5.00697 10.6219L0.452479 6.38809L6.62573 5.63991L9.24494 0Z" fill="#FFC633"/>
<path d="M33.0468 0L35.666 5.63991L41.8393 6.38809L37.2848 10.6219L38.4809 16.7243L33.0468 13.701L27.6128 16.7243L28.8089 10.6219L24.2544 6.38809L30.4276 5.63991L33.0468 0Z" fill="#FFC633"/>
<path d="M56.8487 0L59.4679 5.63991L65.6412 6.38809L61.0867 10.6219L62.2827 16.7243L56.8487 13.701L51.4147 16.7243L52.6107 10.6219L48.0562 6.38809L54.2295 5.63991L56.8487 0Z" fill="#FFC633"/>
<path d="M80.6506 0L83.2698 5.63991L89.443 6.38809L84.8885 10.6219L86.0846 16.7243L80.6506 13.701L75.2165 16.7243L76.4126 10.6219L71.8581 6.38809L78.0314 5.63991L80.6506 0Z" fill="#FFC633"/>
</svg>
